# xmcd CD database file
#
# Track frame offsets:
#	150
#	20610
#	35830
#	54652
#	73122
#	86465
#	108067
#	130585
#	150010
#	168927
#	190577
#	207807
#	229435
#	250650
#
# Disc length: 3593 seconds
#
# Revision: 1
# Processed by: cddbd v1.5.2PL0 Copyright (c) Steve Scherf et al.
# Submitted via: CDex 1.70beta2
#
DISCID=ab0e070e
DTITLE=Jewel - This Way
DYEAR=2001
DGENRE=Vocal
TTITLE0=Standing Still
TTITLE1=Jesus Loves You
TTITLE2=Everybody Needs Someone Sometime
TTITLE3=Break Me
TTITLE4=Do You Want To Play
TTITLE5=Till We Run Out Of Road
TTITLE6=Serve The Ego
TTITLE7=This Way
TTITLE8=Cleveland
TTITLE9=I Won´t Walk Way
TTITLE10=Love Me, Just Leave My Alone
TTITLE11=The New Wild West
TTITLE12=Grey Mater ( Live )
TTITLE13=Sometimes It Be That Way ( Live )
EXTD=YEAR: 2001
EXTT0=
EXTT1=
EXTT2=
EXTT3=
EXTT4=
EXTT5=
EXTT6=
EXTT7=
EXTT8=
EXTT9=
EXTT10=
EXTT11=
EXTT12=
EXTT13=
PLAYORDER=
